<svg width="110" height="60" viewBox="0 0 110 60" fill="none" xmlns="http://www.w3.org/2000/svg">
<path d="M10.659 50.7626H8.25388C8.03896 50.7626 7.86504 50.935 7.86504 51.1481V56.2632C7.86504 56.4762 7.69112 56.6487 7.4762 56.6487H3.81885C3.60393 56.6487 3.43001 56.4762 3.43001 56.2632V39.2676C3.43001 39.0545 3.60393 38.8821 3.81885 38.8821H10.5062C12.3349 38.8821 13.7784 39.4154 14.8393 40.4808C15.899 41.5461 16.4283 42.9847 16.4283 44.7965C16.4283 46.7142 15.9239 48.1884 14.9151 49.2181C13.9064 50.2478 12.4877 50.7626 10.659 50.7626ZM7.86504 42.997V46.6476C7.86504 46.8607 8.03896 47.0332 8.25388 47.0332H9.35208C10.2068 47.0332 10.8304 46.8472 11.223 46.474C11.5982 46.1365 11.787 45.5946 11.787 44.8494C11.787 44.1043 11.6156 43.6067 11.2739 43.2507C10.8801 42.8246 10.249 42.6115 9.37693 42.6115H8.25388C8.03896 42.6115 7.86504 42.784 7.86504 42.997Z" fill="#034C95"/>
<path d="M18.2395 41.4365C18.2395 41.2222 18.4159 41.0473 18.6321 41.0473H24.9182C26.6661 41.0473 28.0103 41.508 28.9507 42.428C29.8911 43.3333 30.3607 44.5021 30.3607 45.937C30.3607 47.3719 29.9234 48.3929 29.0501 49.1885C28.573 49.6159 28.0053 49.9275 27.3469 50.1258C27.0835 50.2047 26.9866 50.5274 27.1593 50.7404L31.4341 56.0205C31.639 56.2742 31.4577 56.6511 31.1297 56.6511H26.8313C26.7034 56.6511 26.5829 56.5883 26.5108 56.4836L23.2311 51.7023C23.015 51.3883 22.5193 51.5398 22.5193 51.9191V56.2632C22.5193 56.4775 22.3429 56.6524 22.1267 56.6524H18.6284C18.4135 56.6524 18.2395 56.4799 18.2395 56.2669V41.4402V41.4365ZM22.518 44.5686V47.6539C22.518 47.867 22.6944 48.0419 22.9106 48.0419H23.3342C24.2573 48.0419 24.9505 47.8313 25.4114 47.41C25.7741 47.0676 25.9555 46.6304 25.9555 46.1008C25.9555 45.5712 25.7654 45.1179 25.3865 44.7903C24.9579 44.3851 24.2734 44.1819 23.333 44.1819H22.9056C22.6907 44.1819 22.5168 44.3543 22.5168 44.5674" fill="#034C95"/>
<path d="M94.014 41.4365C94.014 41.2222 94.1904 41.0473 94.4066 41.0473H100.693C102.441 41.0473 103.785 41.508 104.725 42.428C105.666 43.3333 106.135 44.5033 106.135 45.9382C106.135 47.3731 105.698 48.3954 104.825 49.191C104.348 49.6184 103.78 49.9312 103.121 50.1283C102.858 50.2071 102.761 50.5298 102.934 50.7429L107.209 56.0255C107.414 56.2792 107.232 56.6561 106.904 56.6561H102.602C102.475 56.6561 102.357 56.5957 102.285 56.4923L98.8689 51.6654C98.6503 51.3563 98.1608 51.5102 98.1608 51.8871V56.2669C98.1608 56.4812 97.9844 56.6561 97.7683 56.6561H94.4053C94.1904 56.6561 94.0165 56.4836 94.0165 56.2706V41.4353L94.014 41.4365ZM98.131 44.5698V47.6564C98.131 47.8707 98.3074 48.0456 98.5236 48.0456H99.1099C100.033 48.0456 100.726 47.835 101.187 47.4137C101.55 47.0713 101.731 46.6341 101.731 46.1033C101.731 45.5724 101.541 45.1204 101.162 44.7928C100.734 44.3876 100.049 44.1843 99.1087 44.1843H98.5186C98.3037 44.1843 98.1298 44.3568 98.1298 44.5698" fill="#034C95"/>
<path d="M48.1568 48.8511C48.1568 51.0619 47.389 52.9217 45.8548 54.4317C44.3342 55.9109 42.4111 56.6499 40.0867 56.6499C37.7624 56.6499 35.8393 55.9097 34.32 54.4317C32.7845 52.9229 32.0167 51.0631 32.0167 48.8511C32.0167 47.8202 32.2105 46.8115 32.5981 45.8261C32.9857 44.8396 33.5597 43.9811 34.32 43.2495C35.8405 41.7703 37.7624 41.0313 40.0867 41.0313C42.4111 41.0313 44.3342 41.7703 45.8548 43.2495C46.6151 43.9811 47.189 44.8408 47.5766 45.8261C47.9642 46.8115 48.158 47.8202 48.158 48.8511M40.0867 44.7952C38.8879 44.7952 37.9015 45.1906 37.1263 45.9826C36.3511 46.7597 35.9648 47.7377 35.9648 48.9176C35.9648 50.0076 36.3511 50.9338 37.1263 51.6962C37.9301 52.4881 38.9177 52.8835 40.0867 52.8835C41.2558 52.8835 42.2645 52.4955 43.0248 51.7184C43.8149 50.9116 44.2087 49.9559 44.2087 48.8498C44.2087 47.7438 43.8137 46.7585 43.0248 45.9813C42.2061 45.1894 41.2259 44.794 40.0867 44.794" fill="#034C95"/>
<path d="M47.671 38.8796H51.6066C51.7694 38.8796 51.9147 38.9794 51.9706 39.1309L55.5609 48.7304C55.6864 49.0654 56.1634 49.0654 56.2901 48.7316L59.9264 39.1309C59.9835 38.9806 60.1289 38.8808 60.2916 38.8808H64.2011C64.4769 38.8808 64.6645 39.1567 64.5627 39.4105L57.6915 56.4134C57.6331 56.56 57.4902 56.6548 57.3312 56.6548H54.4441C54.2851 56.6548 54.1409 56.5588 54.0826 56.411L47.3095 39.4092C47.2089 39.1555 47.3965 38.8796 47.6723 38.8796" fill="#034C95"/>
<path d="M65.7081 41.0387H68.8002C69.0126 41.0387 69.1865 41.2111 69.1865 41.4217V56.2472C69.1865 56.459 69.0139 56.6302 68.8002 56.6302H65.7106C65.4969 56.6302 65.3217 56.4565 65.3217 56.2447V41.4217C65.3217 41.2099 65.4944 41.0387 65.7081 41.0387Z" fill="#034C95"/>
<path d="M87.9888 41.0387H91.0772C91.2909 41.0387 91.4661 41.2124 91.4661 41.4242V56.2632C91.4661 56.475 91.2909 56.6487 91.0772 56.6487H87.9888C87.7764 56.6487 87.6025 56.4762 87.6025 56.2656V41.423C87.6025 41.2111 87.7752 41.0399 87.9888 41.0399" fill="#034C95"/>
<path d="M70.9084 41.0572H74.3955C74.557 41.0572 74.7011 41.1557 74.7595 41.3047L77.9709 49.6135C78.0988 49.9436 78.5684 49.9435 78.6976 49.6147L81.9512 41.3023C82.0096 41.1545 82.1525 41.0559 82.3127 41.0559H85.7763C86.0533 41.0559 86.2409 41.3355 86.1353 41.5892L79.9461 56.4097C79.8853 56.5538 79.7436 56.6487 79.5859 56.6487H77.0118C76.854 56.6487 76.7112 56.5538 76.6515 56.4085L70.5493 41.5868C70.445 41.3331 70.6326 41.0559 70.9096 41.0559" fill="#034C95"/>
<mask id="mask0_227_66" style="mask-type:luminance" maskUnits="userSpaceOnUse" x="42" y="18" width="27" height="15">
<path d="M53.3782 19.4195L42.9043 29.9464C42.9043 30.0659 43.6969 30.9958 43.8658 31.1633C44.1615 31.4564 44.9454 32.2114 45.3169 32.0415L53.7534 23.6724C54.7298 22.8361 55.8628 22.5146 56.9945 23.2992L65.8075 32.0378C65.9193 32.1092 66.0422 32.1314 66.1727 32.1191C66.4845 32.0895 68.4101 30.1681 68.3418 29.8183L58.1238 19.6399C57.4517 19.0364 56.5324 18.7371 55.6143 18.7371C54.813 18.7371 54.013 18.965 53.3782 19.4182" fill="white"/>
</mask>
<g mask="url(#mask0_227_66)">
<path d="M68.4101 18.7384H42.9043V32.2115H68.4101V18.7384Z" fill="url(#paint0_linear_227_66)"/>
</g>
<path d="M71.9718 17.7765H65.9491C65.7028 17.7765 65.5031 17.9744 65.5031 18.2186V20.7694C65.5031 21.0136 65.7028 21.2115 65.9491 21.2115H71.9718C72.2181 21.2115 72.4178 21.0136 72.4178 20.7694V18.2186C72.4178 17.9744 72.2181 17.7765 71.9718 17.7765Z" fill="url(#paint1_linear_227_66)"/>
<path d="M56.9237 2.92764H54.3509C54.1046 2.92764 53.9049 3.1256 53.9049 3.3698V9.27066C53.9049 9.51486 54.1046 9.71282 54.3509 9.71282H56.9237C57.17 9.71282 57.3697 9.51486 57.3697 9.27066V3.3698C57.3697 3.1256 57.17 2.92764 56.9237 2.92764Z" fill="url(#paint2_linear_227_66)"/>
<path d="M45.3255 17.7765H39.3215C39.0752 17.7765 38.8755 17.9744 38.8755 18.2186V20.7694C38.8755 21.0136 39.0752 21.2115 39.3215 21.2115H45.3255C45.5719 21.2115 45.7715 21.0136 45.7715 20.7694V18.2186C45.7715 17.9744 45.5719 17.7765 45.3255 17.7765Z" fill="url(#paint3_linear_227_66)"/>
<path d="M44.7223 6.98673L42.9017 8.78912C42.7274 8.96168 42.7272 9.24164 42.9013 9.41444L49.5947 16.0598C49.7688 16.2326 50.0512 16.2328 50.2255 16.0602L52.046 14.2578C52.2203 14.0853 52.2205 13.8053 52.0464 13.6325L45.353 6.98717C45.1789 6.81437 44.8965 6.81417 44.7223 6.98673Z" fill="url(#paint4_linear_227_66)"/>
<path d="M65.7351 6.9858L59.0416 13.6311C58.8676 13.8039 58.8678 14.0839 59.0421 14.2564L60.8626 16.0588C61.0369 16.2314 61.3193 16.2312 61.4933 16.0584L68.1868 9.41307C68.3608 9.24027 68.3606 8.96032 68.1863 8.78776L66.3658 6.98536C66.1915 6.81281 65.9091 6.813 65.7351 6.9858Z" fill="url(#paint5_linear_227_66)"/>
<path d="M56.9237 29.2752H54.3509C54.1046 29.2752 53.9049 29.4731 53.9049 29.7173V35.6108C53.9049 35.855 54.1046 36.053 54.3509 36.053H56.9237C57.17 36.053 57.3697 35.855 57.3697 35.6108V29.7173C57.3697 29.4731 57.17 29.2752 56.9237 29.2752Z" fill="url(#paint6_linear_227_66)"/>
<defs>
<linearGradient id="paint0_linear_227_66" x1="42.8662" y1="25.4072" x2="68.3859" y2="25.4072" gradientUnits="userSpaceOnUse">
<stop stop-color="#08AB8E"/>
<stop offset="1" stop-color="#83BB26"/>
</linearGradient>
<linearGradient id="paint1_linear_227_66" x1="65.3559" y1="18.7299" x2="72.1509" y2="18.7299" gradientUnits="userSpaceOnUse">
<stop stop-color="#08AB8E"/>
<stop offset="1" stop-color="#83BB26"/>
</linearGradient>
<linearGradient id="paint2_linear_227_66" x1="53.9803" y1="6.61647" x2="57.4304" y2="6.61647" gradientUnits="userSpaceOnUse">
<stop stop-color="#08AB8E"/>
<stop offset="1" stop-color="#83BB26"/>
</linearGradient>
<linearGradient id="paint3_linear_227_66" x1="38.9316" y1="19.4262" x2="45.7528" y2="19.4262" gradientUnits="userSpaceOnUse">
<stop stop-color="#08AB8E"/>
<stop offset="1" stop-color="#83BB26"/>
</linearGradient>
<linearGradient id="paint4_linear_227_66" x1="43.9131" y1="7.86466" x2="51.0441" y2="15.0673" gradientUnits="userSpaceOnUse">
<stop stop-color="#08AB8E"/>
<stop offset="1" stop-color="#83BB26"/>
</linearGradient>
<linearGradient id="paint5_linear_227_66" x1="67.192" y1="7.87512" x2="60.061" y2="15.0778" gradientUnits="userSpaceOnUse">
<stop stop-color="#08AB8E"/>
<stop offset="1" stop-color="#83BB26"/>
</linearGradient>
<linearGradient id="paint6_linear_227_66" x1="53.9803" y1="32.9577" x2="57.4304" y2="32.9577" gradientUnits="userSpaceOnUse">
<stop stop-color="#08AB8E"/>
<stop offset="1" stop-color="#83BB26"/>
</linearGradient>
</defs>
</svg>
